<?xml version="1.0" encoding="iso-8859-1"?>
<!-- Uploaded to: SVG Repo, www.svgrepo.com, Generator: SVG Repo Mixer Tools -->
<!DOCTYPE svg PUBLIC "-//W3C//DTD SVG 1.1//EN" "http://www.w3.org/Graphics/SVG/1.1/DTD/svg11.dtd">
<svg fill="#000000" height="800px" width="800px" version="1.1" id="Capa_1" xmlns="http://www.w3.org/2000/svg" xmlns:xlink="http://www.w3.org/1999/xlink" 
	 viewBox="0 0 297 297" xml:space="preserve">
<g>
	<path d="M287,28.75H10c-5.522,0-10,4.478-10,10v184.344c0,5.522,4.478,10,10,10h50.333l-4.178,23.398
		c-0.52,2.914,0.277,5.908,2.178,8.178c1.899,2.269,4.707,3.58,7.667,3.58h165c2.96,0,5.768-1.312,7.667-3.58
		c1.9-2.27,2.697-5.264,2.178-8.178l-4.178-23.398H287c5.522,0,10-4.478,10-10V38.75C297,33.228,292.522,28.75,287,28.75z
		 M219.057,248.25H77.943l2.707-15.156H216.35L219.057,248.25z M277,213.094H20V48.75h257V213.094z"/>
	<path d="M59.833,111.75h28.833c9.558,0,17.334-7.776,17.334-17.334V82.084c0-9.558-7.776-17.334-17.334-17.334H59.833
		c-9.558,0-17.333,7.776-17.333,17.334v12.332C42.5,103.974,50.275,111.75,59.833,111.75z M56.5,82.084
		c0-1.838,1.495-3.334,3.333-3.334h28.833c1.838,0,3.334,1.496,3.334,3.334v12.332c0,1.838-1.496,3.334-3.334,3.334H59.833
		c-1.838,0-3.333-1.496-3.333-3.334V82.084z"/>
	<path d="M134.084,111.75h28.832c9.558,0,17.334-7.776,17.334-17.334V82.084c0-9.558-7.776-17.334-17.334-17.334h-28.832
		c-9.558,0-17.334,7.776-17.334,17.334v12.332C116.75,103.974,124.526,111.75,134.084,111.75z M130.75,82.084
		c0-1.838,1.496-3.334,3.334-3.334h28.832c1.838,0,3.334,1.496,3.334,3.334v12.332c0,1.838-1.496,3.334-3.334,3.334h-28.832
		c-1.838,0-3.334-1.496-3.334-3.334V82.084z"/>
	<path d="M237.166,123.75h-28.832c-9.558,0-17.334,7.776-17.334,17.334v12.332c0,9.558,7.776,17.334,17.334,17.334h28.832
		c9.558,0,17.334-7.776,17.334-17.334v-12.332C254.5,131.526,246.724,123.75,237.166,123.75z M240.5,153.416
		c0,1.838-1.496,3.334-3.334,3.334h-28.832c-1.838,0-3.334-1.496-3.334-3.334v-12.332c0-1.838,1.496-3.334,3.334-3.334h28.832
		c1.838,0,3.334,1.496,3.334,3.334V153.416z"/>
	<path d="M59.833,170.75h28.833c9.558,0,17.334-7.776,17.334-17.334v-12.332c0-9.558-7.776-17.334-17.334-17.334H59.833
		c-9.558,0-17.333,7.776-17.333,17.334v12.332C42.5,162.974,50.275,170.75,59.833,170.75z M56.5,141.084
		c0-1.838,1.495-3.334,3.333-3.334h28.833c1.838,0,3.334,1.496,3.334,3.334v12.332c0,1.838-1.496,3.334-3.334,3.334H59.833
		c-1.838,0-3.333-1.496-3.333-3.334V141.084z"/>
	<path d="M134.084,170.75h28.832c9.558,0,17.334-7.776,17.334-17.334v-12.332c0-9.558-7.776-17.334-17.334-17.334h-28.832
		c-9.558,0-17.334,7.776-17.334,17.334v12.332C116.75,162.974,124.526,170.75,134.084,170.75z M130.75,141.084
		c0-1.838,1.496-3.334,3.334-3.334h28.832c1.838,0,3.334,1.496,3.334,3.334v12.332c0,1.838-1.496,3.334-3.334,3.334h-28.832
		c-1.838,0-3.334-1.496-3.334-3.334V141.084z"/>
	<path d="M247.5,183.75H198c-3.866,0-7,3.134-7,7s3.134,7,7,7h49.5c3.866,0,7-3.134,7-7S251.366,183.75,247.5,183.75z"/>
	<path d="M123.75,197.75h49.5c3.866,0,7-3.134,7-7s-3.134-7-7-7h-49.5c-3.866,0-7,3.134-7,7S119.884,197.75,123.75,197.75z"/>
	<path d="M49.5,197.75H99c3.866,0,7-3.134,7-7s-3.134-7-7-7H49.5c-3.866,0-7,3.134-7,7S45.634,197.75,49.5,197.75z"/>
	<path d="M212.033,104.95c-2.148,2.147-2.148,5.63,0,7.777c2.146,2.148,5.631,2.148,7.777,0c0.986-0.985,2.296-1.527,3.689-1.527
		s2.703,0.542,3.689,1.527c1.073,1.074,2.481,1.611,3.889,1.611s2.815-0.537,3.889-1.611c2.148-2.147,2.148-5.63,0-7.777
		C228.645,98.626,218.355,98.626,212.033,104.95z"/>
	<path d="M243.366,102.998c1.407,0,2.815-0.537,3.889-1.611c2.148-2.147,2.148-5.63,0-7.777c-13.098-13.1-34.412-13.1-47.51,0
		c-2.148,2.147-2.148,5.63,0,7.777c2.146,2.148,5.631,2.148,7.777,0c8.811-8.809,23.145-8.809,31.955,0
		C240.551,102.461,241.959,102.998,243.366,102.998z"/>
	<path d="M192.916,91.334c1.407,0,2.815-0.537,3.889-1.611c14.722-14.718,38.671-14.721,53.391,0
		c2.146,2.146,5.63,2.147,7.778-0.001c2.147-2.147,2.147-5.63-0.001-7.778c-19.008-19.006-49.938-19.008-68.945,0.002
		c-2.148,2.147-2.148,5.63,0,7.777C190.101,90.797,191.509,91.334,192.916,91.334z"/>
</g>
</svg>